/* XPM */
const static char * king_b_xpm[] = {
"50 50 7 1",
" 	c None",
".	c #6F6F6F",
"+	c #C8C102",
"@	c #10581F",
"#	c #C81E02",
"$	c #71706C",
"%	c #72716B",
"                                                  ",
"                                                  ",
"                                                  ",
"                                                  ",
"                                                  ",
"                                                  ",
"                                                  ",
"              .       .                           ",
"              ..     .+.   .   .   .              ",
"              .+.    .+.   .. ..  ..              ",
"              .++.  .+++. .+. .+..+.              ",
"              .+++. .+++. .++.++.++.              ",
"              .++++.+++++.+++++++++.              ",
"              .++++++++++++++++++++.              ",
"              .++++++++++++++++++++.              ",
"              .++++++++++++++++++++.              ",
"              .++++++++++++++++++++.              ",
"              ......................              ",
"            ...@@@@@@@@@@@@@@@@@@@@..             ",
"            .@@@@@@@@@@@@@@@#@@@@@@@..            ",
"          ...@@@@@@@@@@@@@@###@@@@@@@..           ",
"         ..@@@@@@@@@@@@@@@#####@@@@@@@..          ",
"         .@@@@@@@@@@@@@@@@@###@@@@@@@@@..         ",
"        ..@@@@@@@@@@@@@@@@@@#@@@@@@@@@@@.         ",
"        .@@@@@@@@@@@@@@@@@@@@@@@@@@@@@@@..        ",
"       ..@@@@@@@@@@@@@@@@@@@@@@@@@@@@@@@@.        ",
"       .@@@@@@@@@@@@@@@@@@@@@@@@@@@@@@@@..        ",
"       .@@@@@@@@@@@@@@@@@@@@@@@@@@@@@@@..         ",
"       .@@@@@@@@@@@@@@@@@@@@@@@@@@@@@...          ",
"       .@@@@@@@@@@@@@@@@@@@@@@@@@@....            ",
"       .@@@@@@@@@@@@@@@@@@@@@@@@...               ",
"       .@@@@@@@@@@@@@@@@@@@@@....                 ",
"       .@@@@@@@@@@@@@@@@@@@@..                    ",
"       .@@@@@@@@@@@@@@@@@....                     ",
"       .@@@@@@@@@@@@@@@@@@@..                     ",
"       .@@@@@@@@@@@@@@@@@@@@..                    ",
"       .@@@@@@@@@@@@@@@@@@@@@$.                   ",
"       .@@@@@@@@@@@@@@@@@@@@@@$..                 ",
"       .@@@@@@@@@@@@@@@@@@@@@@@@...               ",
"       ..@@@@@@@@@@@@@@@@@@@@@@@@@..              ",
"        .@@@@@@@@@@@@@@@@@@@@@@@@@@..             ",
"        ..@@@@@@@@@@@@@@@@@@@@@@@@@@%.            ",
"         .@@@@@@@@@@@@@@@@@@@@@@@@@@@..           ",
"         ..@@@@@@@@@@@@@@@@@@@@@@@@@@@.           ",
"          ...@@@@@@@@@@@@@@@@@@@@@@@@..           ",
"            .@@@@@@@@@@@@@@@@@@@@@@@..            ",
"            ...@@@@@@@@@@@@@@@@@@@@..             ",
"              .@@@@@@@@@@@@@@@@@@@..              ",
"              ....@@@@@@@@@@@@@@...               ",
"                 ................                 "};
