/* XPM */
static const char * king_w_xpm[] = {
"50 50 14 1",
" 	c None",
".	c #000000",
"+	c #C8C102",
"@	c #FFF60B",
"#	c #FFF50C",
"$	c #FFF60D",
"%	c #FFF60C",
"&	c #FFF50B",
"*	c #FFF70C",
"=	c #FDF40C",
"-	c #FFF50A",
";	c #FFF30B",
">	c #FFF709",
",	c #FFF70B",
"                                                  ",
"                                                  ",
"                                                  ",
"                                                  ",
"                                                  ",
"                                                  ",
"                                                  ",
"              .       .                           ",
"              ..     .+.   .   .   .              ",
"              .+.    .+.   .. ..  ..              ",
"              .++.  .+++. .+. .+..+.              ",
"              .+++. .+++. .++.++.++.              ",
"              .++++.+++++.+++++++++.              ",
"              .++++++++++++++++++++.              ",
"              .++++++++++++++++++++.              ",
"              .++++++++++++++++++++.              ",
"              .++++++++++++++++++++.              ",
"              ......................              ",
"                @#$$$$$$$$$$$$$$%@                ",
"               #$$$$$$$$$$$$.$$$$$@               ",
"              %$$$$$$$$$$$$...$$$$$&              ",
"             *$$$$$$$$$$$$.....$$$$#@             ",
"            %$$$$$$$$$$$$$$...$$$$$$$@            ",
"           %$$$$$$$$$$$$$$$$.=$$$$$$$#%           ",
"          @$$$$$$$$$$$$$$$$$$$$$$$$$$$%           ",
"          #$$$$$$$$$$$$$$$$$$$$$$$$$$$$-          ",
"         @$$$$$$$$$$$$$$$$$$$$$$$$$$##;           ",
"         %$$$$$$$$$$$$$$$$$$$$$$$$%#@             ",
"         $$$$$$$$$$$$$$$$$$$$$$$##                ",
"        %$$$$$$$$$$$$$$$$$$$$$%@                  ",
"        %$$$$$$$$$$$$$$$$$$#%&                    ",
"        %$$$$$$$$$$$$$$$$$%                       ",
"        %$$$$$$$$$$$$$$$@                         ",
"        %$$$$$$$$$$$$$$%>                         ",
"        %$$$$$$$$$$$$$$$%                         ",
"        %$$$$$$$$$$$$$$$$$&                       ",
"         $$$$$$$$$$$$$$$$$##                      ",
"         %$$$$$$$$$$$$$$$$$$#&                    ",
"         @$$$$$$$$$$$$$$$$$$$%&                   ",
"          #$$$$$$$$$$$$$$$$$$$$,                  ",
"          @$$$$$$$$$$$$$$$$$$$$$&&                ",
"           %$$$$$$$$$$$$$$$$$$$$$$#               ",
"            %$$$$$$$$$$$$$$$$$$$$$$#              ",
"             %$$$$$$$$$$$$$$$$$$$$$#&             ",
"              %$$$$$$$$$$$$$$$$$$$$&              ",
"               #$$$$$$$$$$$$$$$$$$@               ",
"                @#$$$$$$$$$$$$$$%@                ",
"                  &%#$$$$$$$$&%&                  ",
"                    &%%%%%%%&                     ",
"                                                  "};
