/* XPM */
static const char * pawn_b_xpm[] = {
"50 50 3 1",
" 	c None",
".	c #7C7C7C",
"+	c #000000",
"                                                  ",
"                                                  ",
"                                                  ",
"                                                  ",
"                                                  ",
"                                                  ",
"                                                  ",
"                                                  ",
"                                                  ",
"                                                  ",
"                                                  ",
"                                                  ",
"                      ......                      ",
"                    ..++++++..                    ",
"                  ..++++++++++..                  ",
"                  .++++++++++++.                  ",
"                 .++++++++++++++.                 ",
"                 .++++++++++++++.                 ",
"                  .++++++++++++.                  ",
"                  .++++++++++++.                  ",
"                   ..++++++++..                   ",
"                     .++++++.                     ",
"                     .++++++.                     ",
"                    .++++++++.                    ",
"                    .++++++++.                    ",
"                  ..++++++++++..                  ",
"                ..++++++++++++++..                ",
"              ..++++++++++++++++++..              ",
"            ..++++++++++++++++++++++..            ",
"            .++++++++++++++++++++++++.            ",
"           .++++++++++++++++++++++++++.           ",
"           .++++++++++++++++++++++++++.           ",
"          .++++++++++++++++++++++++++++.          ",
"          .++++++++++++++++++++++++++++.          ",
"         .++++++++++++++++++++++++++++++.         ",
"        .++++++++++++++++++++++++++++++++.        ",
"        .++++++++++++++++++++++++++++++++.        ",
"        .++++++++++++++++++++++++++++++++.        ",
"        .++++++++++++++++++++++++++++++++.        ",
"        .++++++++++++++++++++++++++++++++.        ",
"        .++++++++++++++++++++++++++++++++.        ",
"        .++++++++++++++++++++++++++++++++.        ",
"     ........................................     ",
"    ..........................................    ",
"    ..++++++++++++++++++++++++++++++++++++++..    ",
"    ..++++++++++++++++++++++++++++++++++++++..    ",
"    ..........................................    ",
"    ..........................................    ",
"                                                  ",
"                                                  "};
