/* XPM */
static const char * piece_xpm[] = {
"50 50 3 1",
" 	c None",
".	c #980808",
"+	c #000000",
"                  ..............                  ",
"               ....................               ",
"             ........................             ",
"           ............................           ",
"          ..............................          ",
"         ................................         ",
"        ..................................        ",
"       .......................++...........       ",
"      .......................++++...........      ",
"     .........................++.............     ",
"    ..........................................    ",
"   ............................................   ",
"   ............................................   ",
"  ..............................................  ",
"  ..............................................  ",
" ..............................................   ",
" ............................................     ",
" ..........................................       ",
"........................................          ",
"......................................            ",
"....................................              ",
"..................................                ",
"...............................                   ",
".............................                     ",
"...........................                       ",
".........................                         ",
"........................                          ",
".........................                         ",
"...........................                       ",
"............................                      ",
".............................                     ",
"...............................                   ",
" ...............................                  ",
" ................................                 ",
" ..................................               ",
"  ..................................              ",
"  ...................................             ",
"   ....................................           ",
"   .....................................          ",
"    ......................................        ",
"     ......................................       ",
"      ......................................      ",
"       ....................................       ",
"        ..................................        ",
"         ................................         ",
"          ..............................          ",
"           ............................           ",
"             ........................             ",
"               ....................               ",
"                  ..............                  "};
