/* XPM */
const static char * rook_b_xpm[] = {
"50 50 3 1",
" 	c None",
".	c #989898",
"+	c #000000",
"                                                  ",
"                                                  ",
"                                                  ",
"                                                  ",
"                                                  ",
"                                                  ",
"      .......... ........ ........ ..........     ",
"      .......... ........ ........ ..........     ",
"      ..++++++.. ..++++.. ..++++.. ..++++++..     ",
"      ..++++++.. ..++++.. ..++++.. ..++++++..     ",
"      ..++++++.. ..++++.. ..++++.. ..++++++..     ",
"      ..++++++.....++++.....++++.....++++++..     ",
"      ..++++++.....++++.....++++.....++++++..     ",
"      .....+++++++++++++++++++++++++++++.....     ",
"      .....+++++++++++++++++++++++++++++.....     ",
"         ..+++++++++++++++++++++++++++++..        ",
"         ..+++++++++++++++++++++++++++++..        ",
"         ..+++++++++++++++++++++++++++++..        ",
"         ..+++++++++++++++++++++++++++++..        ",
"         ..+++++++++++++++++++++++++++++..        ",
"         ..+++++++++++++++++++++++++++++..        ",
"         ..+++++++++++++++++++++++++++++..        ",
"         ..+++++++++++++++++++++++++++++..        ",
"         ..+++++++++++++++++++++++++++++..        ",
"         ..+++++++++++++++++++++++++++++..        ",
"         ..+++++++++++++++++++++++++++++..        ",
"         ..+++++++++++++++++++++++++++++..        ",
"         ..+++++++++++++++++++++++++++++..        ",
"         ..+++++++++++++++++++++++++++++..        ",
"         ..+++++++++++++++++++++++++++++..        ",
"         ..+++++++++++++++++++++++++++++..        ",
"         ..+++++++++++++++++++++++++++++..        ",
"         ..+++++++++++++++++++++++++++++..        ",
"         ..+++++++++++++++++++++++++++++..        ",
"         ..+++++++++++++++++++++++++++++..        ",
"         ..+++++++++++++++++++++++++++++..        ",
"         ..+++++++++++++++++++++++++++++..        ",
"         ..+++++++++++++++++++++++++++++..        ",
"         ..+++++++++++++++++++++++++++++..        ",
"         ..+++++++++++++++++++++++++++++..        ",
"         ..+++++++++++++++++++++++++++++..        ",
"         ..+++++++++++++++++++++++++++++..        ",
"     .........................................    ",
"    ...........................................   ",
"    ..+++++++++++++++++++++++++++++++++++++++..   ",
"    ..+++++++++++++++++++++++++++++++++++++++..   ",
"    ...........................................   ",
"    ...........................................   ",
"                                                  ",
"                                                  "};
