/* XPM */
static const char * text_checkmate_xpm[] = {
"190 45 3 1",
" 	c None",
".	c #D46E6E",
"+	c #000000",
"                                                                                                                                                                                              ",
"                                                                                                                                                                                              ",
"                                                                                                                                                                                              ",
"                                                                                                                                                                                              ",
"                                                                                                                                                                                              ",
"                                                                                                                                                                                              ",
"                                                                                                  .....      .....         ......      ................   ..............                      ",
"                                                                             .....    ......     .......    .......       ........    .................. ................      ..........     ",
"        ........      .....    .....    ..............         ........     .......  ........    ..+++..    ..+++..       ..++++..    ..++++++++++++++.. ..++++++++++++..     ............    ",
"      ............   .......  .......  ................      ............   ..+++..  ..++++..    ..+++..    ..+++..       ..++++..    ..++++++++++++++.. ..++++++++++++..    ...++++++++...   ",
"     ....++++++....  ..+++..  ..+++..  ..++++++++++++..     ....++++++....  ..+++.. ...++++..    ..+++..    ..+++..      ...++++...   ..++++++++++++++.. ..++++++++++++..   ...++++++++++..   ",
"     ..++++++++++..  ..+++..  ..+++..  ..++++++++++++..     ..++++++++++..  ..+++.....++++...    ..+++...   ..+++..      ..++++++..   ..++++++++++++++.. ..+++...........   ..+++++++++++..   ",
"    ...++++++++++..  ..+++..  ..+++..  ..++++++++++++..    ...++++++++++..  ..+++....++++...     ..++++..  ...+++..      ..++++++..   .......++++....... ..+++..........    ..+++++++++++..   ",
"   ...+++++++++++..  ..+++..  ..+++..  ..++++++++++++..   ...+++++++++++..  ..+++....++++..      ..++++......++++..      ..++++++..    ......++++......  ..+++..            ..+++++++++++..   ",
"   ..+++++....+++..  ..+++..  ..+++..  ..++............   ..++++.....+++..  ..+++...++++...      ..+++++....+++++..      ..++++++..        ..++++..      ..+++..            ..++++++++++...   ",
"  ..+++++.....+++..  ..+++..  ..+++..  ..++...........    ..++++.....+++..  ..+++..++++...       ..+++++....+++++..      ..++++++...       ..++++..      ..+++..            ...+++++++++..    ",
"  ..++++... .......  ..+++..  ..+++..  ..++..            ...+++... .......  ..+++..++++..        ..++++++..++++++..     ...+++++++..       ..++++..      ..+++..             ..+++++++++..    ",
" ..++++...   .....   ..+++..  ..+++..  ..++..            ..+++...   .....   ..+++.++++...        ..++++++.+++++++..     ..++++++++..       ..++++..      ..+++..             ..+++++++++..    ",
" ..++++..            ..+++......+++..  ..++..........    ..+++..            ..+++++++...         ..++++++++++++++..     ..++++++++..       ..++++..      ..+++.........      ..++++++++...    ",
" .++++...            ..+++......+++..  ..++...........   ..++...            ..+++++++..          ..++++++++++++++..     ..++++++++..       ..++++..      ..+++..........     ...+++++++..     ",
" .++++..             ..++++++++++++..  ..+++++++++++..   .+++..             ..++++++...          ..++++++++++++++..     ..+++..+++...      ..++++..      ..+++++++++++..      ..+++++++..     ",
" .++++..             ..++++++++++++..  ..+++++++++++..   .+++..             ..+++++...           ..+++.++++++.+++..     ..+++..++++..      ..++++..      ..+++++++++++..      ..+++++++..     ",
" .++++..             ..++++++++++++..  ..+++++++++++..   .+++..             ..+++++...           ..+++.+++++..+++..    ...+++..++++..      ..++++..      ..+++++++++++..      ..++++++...     ",
" .++++..             ..++++++++++++..  ..+++++++++++..   .+++..             ..++++++...          ..+++..++++..+++..    ..++++..++++..      ..++++..      ..+++..........      ..++++++..      ",
" .++++..             ..++++++++++++..  ..+++++++++++..   .+++..             ..+++++++..          ..+++..+++...+++..    ..++++++++++..      ..++++..      ..+++.........       ...+++++..      ",
" .++++..             ..+++......+++..  ..++...........   .+++..             ..+++++++...         ..+++........+++..    ..++++++++++...     ..++++..      ..+++..               ..++++...      ",
" .++++..             ..+++......+++..  ..++..........    .+++..             ..+++.++++...        ..+++........+++..    ..+++...+++++..     ..++++..      ..+++..               ..++++..       ",
" .++++..             ..+++..  ..+++..  ..++..            .+++..             ..+++..++++..        ..+++..    ..+++..    ..+++...+++++..     ..++++..      ..+++..               ...++...       ",
" .++++...            ..+++..  ..+++..  ..++..            ..++...            ..+++..++++...       ..+++..    ..+++..   ...+++....++++..     ..++++..      ..+++..                ..++..        ",
" ..++++..            ..+++..  ..+++..  ..++..            ..+++..            ..+++...++++...      ..+++..    ..+++..   ..++++....++++..     ..++++..      ..+++..                ......        ",
" ..++++...    ....   ..+++..  ..+++..  ..++..            ...++...    ....   ..+++....++++..      ..+++..    ..+++..   ..+++.....++++...    ..++++..      ..+++..                ......        ",
"  ..++++...........  ..+++..  ..+++..  ..++...........    ..+++...........  ..+++.....+++...     ..+++..    ..+++..   ..+++.. ..+++++..    ..++++..      ..+++..               ........       ",
"  ...++++......++..  ..+++..  ..+++..  ..++............   ..++++......++..  ..+++.. ..++++...    ..+++..    ..+++..   ..+++.. ..+++++..    ..++++..      ..+++..              ...++++...      ",
"   ...+++++++++++..  ..+++..  ..+++..  ..++++++++++++..   ...+++++++++++..  ..+++.. ...++++...   ..+++..    ..+++..   ..+++.. ..+++++..    ..++++..      ..+++..........     ....+++++...     ",
"    ..+++++++++++..  ..+++..  ..+++..  ..++++++++++++..    ..+++++++++++..  ..+++..  ...++++..   ..+++..    ..+++..  ...+++.. ..+++++..    ..++++..      ..+++...........    ..++++++++..     ",
"    ...++++++++++..  ..+++..  ..+++..  ..++++++++++++..    ...++++++++++..  ..+++..   ..++++..   ..+++..    ..+++..  ..+++... ...++++...   ..++++..      ..++++++++++++..    ..++++++++..     ",
"     ....++++++....  ..+++..  ..+++..  ..++++++++++++..     ....++++++....  ..+++..   ...+++..   ..+++..    ..+++..  ..+++..   ..+++++..   ..++++..      ..++++++++++++..    ..++++++++..     ",
"      ...++++++...   ..+++..  ..+++..  ..++++++++++++..      ...++++++...   ..+++..    ...++..   ..+++..    ..+++..  ..+++..   ..+++++..   ..++++..      ..++++++++++++..    ..+++++++...     ",
"       ..........    .......  .......  ................       ..........    ..+++..     ..++..   .......    .......  .......   .........   ..++++..      ..++++++++++++..    ....++++...      ",
"        ........      .....    .....    ..............         ........     .......     ......    .....      .....    .....     .......    ........      ................     .........       ",
"                                                                             .....       ....                                               ......        ..............        ......        ",
"                                                                                                                                                                                              ",
"                                                                                                                                                                                              ",
"                                                                                                                                                                                              ",
"                                                                                                                                                                                              "};
