/* XPM */
static const char * text_turn_xpm[] = {
"50 17 2 1",
" 	c None",
".	c #000000",
"                                                  ",
" ............ ..      ..  ........    ..      ..  ",
" ............ ..      ..  .........   ...     ..  ",
"      ..      ..      ..  ..     ...  ...     ..  ",
"      ..      ..      ..  ..      ..  ....    ..  ",
"      ..      ..      ..  ..      ..  ....    ..  ",
"      ..      ..      ..  ..     ...  .. ..   ..  ",
"      ..      ..      ..  .........   .. ...  ..  ",
"      ..      ..      ..  ........    ..  ..  ..  ",
"      ..      ..      ..  ..    ...   ..  ... ..  ",
"      ..      ..      ..  ..     ..   ..   .. ..  ",
"      ..      ..      ..  ..     ..   ..   .. ..  ",
"      ..      ..      ..  ..     ..   ..    ....  ",
"      ..      ...    ...  ..      ..  ..    ....  ",
"      ..       ........   ..      ..  ..     ...  ",
"      ..        ......    ..      ..  ..     ...  ",
"                                                  "};
