/* XPM */
static const char * text_check_xpm[] = {
"75 32 2 1",
" 	c None",
".	c #000000",
"                                                                           ",
"                                                             ...      .... ",
"      ......    ...      ...   ............        ......    ...     ....  ",
"    ..........  ...      ...   ............      ..........  ...    ....   ",
"    ..........  ...      ...   ............      ..........  ...    ....   ",
"   ...........  ...      ...   ............     ...........  ...   ....    ",
"  ....     ...  ...      ...   ..              ....     ...  ...  ....     ",
"  ....     ...  ...      ...   ..              ....     ...  ...  ....     ",
"  ...           ...      ...   ..              ...           ... ....      ",
" ...            ...      ...   ..             ...            .......       ",
" ...            ...      ...   ..             ...            .......       ",
" ..             ...      ...   ..             ..             ......        ",
" ..             ............   ...........    ..             .....         ",
" ..             ............   ...........    ..             .....         ",
" ..             ............   ...........    ..             ......        ",
" ..             ............   ...........    ..             .......       ",
" ..             ............   ...........    ..             .......       ",
" ..             ...      ...   ..             ..             ... ....      ",
" ..             ...      ...   ..             ..             ...  ....     ",
" ..             ...      ...   ..             ..             ...  ....     ",
" ..             ...      ...   ..             ..             ...   ....    ",
" ...            ...      ...   ..             ...            ...    ....   ",
"  ..            ...      ...   ..              ..            ...     ...   ",
"  ...           ...      ...   ..              ...           ...     ....  ",
"  ....      ..  ...      ...   ..              ....      ..  ...      .... ",
"   ...........  ...      ...   ............     ...........  ...       ....",
"   ...........  ...      ...   ............     ...........  ...       ....",
"    ..........  ...      ...   ............      ..........  ...        ...",
"      ......    ...      ...   ............        ......    ...         ..",
"      ......    ...      ...   ............        ......    ...         ..",
"                                                                           ",
"                                                                           "};
