/* XPM */
static const char * text_draw_xpm[] = {
"85 45 3 1",
" 	c None",
".	c #D46E6E",
"+	c #000000",
"                                                                                     ",
"                                                                                     ",
"                                                                                     ",
"                                                                                     ",
"                                                                                     ",
"                                                                                     ",
" .....                 .....                      ......            .....      ..... ",
".......               ............               ........          .......    .......",
"..++++...             ..+++++++++..              ..++++..          ..+++..    ..+++..",
"..++++++...           ..++++++++++..             ..++++..          ..+++..    ..+++..",
"..++++++++...         ..+++.....+++..           ...++++...         ..+++..    ..+++..",
"..+++..++++..         ..+++..  ..+++..          ..++++++..         ..+++..    ..+++..",
"..+++....+++..        ..+++..   ..+++.          ..++++++..         ..+++..    ..+++..",
"..+++..  .+++.        ..+++..    ..++.          ..++++++..         ..+++..    ..+++..",
"..+++..   .+++.       ..+++..     .++..         ..++++++..         ..+++..    ..+++..",
"..+++..    .++..      ..+++..     ..++.         ..++++++...        ..+++..    ..+++..",
"..+++..    ..++..     ..+++..      .++.        ...+++++++..        ..+++..    ..+++..",
"..+++..     ..++.     ..+++..      .++.        ..++++++++..        ..+++..    ..+++..",
"..+++..      .++..    ..+++..     ..++.        ..++++++++..        ..+++..    ..+++..",
"..+++..      ..++.    ..+++..     .++..        ..++++++++..        ..+++........+++..",
"..+++..       .++.    ..+++........++.         ..+++..+++...       ..+++........+++..",
"..+++..       .++.    ..++++++++++++..         ..+++..++++..       ..+++..+++...+++..",
"..+++..       .++.    ..+++++++++++..         ...+++..++++..       ..+++..++++..+++..",
"..+++..       .++.    ..+++....++...          ..++++..++++..       ..+++.+++++..+++..",
"..+++..       .++.    ..+++.. .++..           ..++++++++++..       ..+++.++++++.+++..",
"..+++..       .++.    ..+++.. ..++.           ..++++++++++...      ..++++++++++++++..",
"..+++..       .++.    ..+++..  .++.           ..+++...+++++..      ..++++++++++++++..",
"..+++..       .++.    ..+++..  .++..          ..+++...+++++..      ..++++++++++++++..",
"..+++..       .++.    ..+++..  ..++.         ...+++....++++..      ..++++++.+++++++..",
"..+++..      ..++.    ..+++..   .++..        ..++++....++++..      ..++++++..++++++..",
"..+++..      .++..    ..+++..   ..++.        ..+++.....++++...     ..+++++....+++++..",
"..+++..     ..++.     ..+++..    .++.        ..+++.. ..+++++..     ..+++++....+++++..",
"..+++..     .++.      ..+++..    .++..       ..+++.. ..+++++..     ..++++......++++..",
"..+++..    ..++.      ..+++..    ..++.       ..+++.. ..+++++..     ..++++..  ...+++..",
"..+++..   ..++.       ..+++..     .++.      ...+++.. ..+++++..     ..+++...   ..+++..",
"..+++......++..       ..+++..     .++...    ..+++... ...++++...    ..+++..    ..+++..",
"..++++++++++..        ..+++..     ..+++.    ..+++..   ..+++++..    ..+++..    ..+++..",
"..+++++++++..         ..+++..      .+++.    ..+++..   ..+++++..    ..+++..    ..+++..",
"............          .......      .....    .......   .........    .......    .......",
" .....                 .....       .....     .....     .......      .....      ..... ",
"                                                                                     ",
"                                                                                     ",
"                                                                                     ",
"                                                                                     ",
"                                                                                     "};
